<svg xmlns="http://www.w3.org/2000/svg" xmlns:xlink="http://www.w3.org/1999/xlink" viewBox="0 0 61 40" fill="#fff" fill-rule="evenodd" stroke="#000" stroke-linecap="round" stroke-linejoin="round"><use xlink:href="#A" x=".5" y=".5"/><symbol id="A" overflow="visible"><g stroke="none" fill-rule="nonzero"><path d="M36.089 31.361h-5.037V8.191l5.037-1.387z" fill="#1a1a1a"/><path d="M8.591 14.076a3.45 3.45 0 0 1-3.448-3.448A3.45 3.45 0 0 1 8.591 7.18a3.45 3.45 0 0 1 3.448 3.448 3.45 3.45 0 0 1-3.448 3.448z" fill="#4d64ae"/><path d="M11.292 31.319c.041 1.205-.131 2.408-.508 3.553-.268.812-.753 1.536-1.403 2.092-.63.517-1.383.864-2.185 1.007a14.35 14.35 0 0 1-2.836.26 8.78 8.78 0 0 1-1.864-.182c-.48-.097-.94-.262-1.372-.492a2.34 2.34 0 0 1-.83-.72 1.39 1.39 0 0 1-.294-.85 1.65 1.65 0 0 1 .616-1.31c.478-.37 1.074-.557 1.678-.523a1.95 1.95 0 0 1 .725.124 2.34 2.34 0 0 1 .554.306 4.65 4.65 0 0 1 .449.415l.322.434c.165.227.362.43.585.6a.89.89 0 0 0 .446.155c.137.002.27-.036.387-.108.13-.097.226-.233.275-.387a2.78 2.78 0 0 0 .155-.74 8.97 8.97 0 0 0 .062-1.186V15.686l5.037-1.387zm7.362-16.622v11.65a2.38 2.38 0 0 0 .182.926 2.5 2.5 0 0 0 .539.717c.228.207.491.373.775.492a2.37 2.37 0 0 0 .93.186 1.63 1.63 0 0 0 .624-.155 3.26 3.26 0 0 0 .697-.434c.253-.192.488-.407.701-.643.235-.25.444-.524.624-.818V14.701h5.037v16.66h-5.037v-1.55c-.632.555-1.34 1.016-2.104 1.368a5.29 5.29 0 0 1-2.166.496 6.4 6.4 0 0 1-2.286-.387 6.04 6.04 0 0 1-1.844-1.12 5.26 5.26 0 0 1-1.228-1.658 4.81 4.81 0 0 1-.446-2.05V14.7z" fill="#1a1a1a"/><use xlink:href="#C" fill="#ca3c32"/><use xlink:href="#C" x="8.285" fill="#9259a3"/><path d="M45.139 6.896a3.45 3.45 0 0 1-3.448-3.448A3.45 3.45 0 0 1 45.139 0a3.45 3.45 0 0 1 3.448 3.448 3.44 3.44 0 0 1-1.01 2.44c-.648.647-1.525 1-2.44 1.01z" fill="#399746"/><path d="M38.801 15.731l5.037-1.387v17.017h-5.037zm15.498 7.04c-.5.214-.988.456-1.46.725a8.48 8.48 0 0 0-1.341.891 4.95 4.95 0 0 0-.988 1.035c-.244.33-.38.728-.387 1.14a3.27 3.27 0 0 0 .124.907 2.71 2.71 0 0 0 .337.74c.13.2.29.357.477.492a1.03 1.03 0 0 0 .585.186 2.44 2.44 0 0 0 1.232-.387 16.06 16.06 0 0 0 1.403-.957zm5.037 8.6h-5.037v-1.335l-.814.647a5.5 5.5 0 0 1-.891.523 5.21 5.21 0 0 1-1.093.34c-.483.087-.974.127-1.465.12a6.2 6.2 0 0 1-2.065-.322 4.74 4.74 0 0 1-1.55-.895 3.96 3.96 0 0 1-.973-1.368 4.26 4.26 0 0 1-.337-1.693 3.98 3.98 0 0 1 .353-1.713 5.08 5.08 0 0 1 .988-1.383 7.5 7.5 0 0 1 1.461-1.108 15.61 15.61 0 0 1 1.802-.895l2.003-.736 2.034-.66.554-.116v-1.65c.01-.452-.05-.902-.17-1.337-.08-.328-.232-.634-.446-.895a1.55 1.55 0 0 0-.694-.508c-.3-.106-.598-.16-.907-.155a2.86 2.86 0 0 0-1.004.155c-.246.09-.468.24-.647.43a1.54 1.54 0 0 0-.353.616 2.51 2.51 0 0 0-.108.775c.002.307-.035.613-.108.91a1.88 1.88 0 0 1-.353.775 1.73 1.73 0 0 1-.697.484 2.65 2.65 0 0 1-1.124.201 2.91 2.91 0 0 1-.973-.155 2.36 2.36 0 0 1-.74-.446 2.32 2.32 0 0 1-.492-.678 2.17 2.17 0 0 1-.17-.845c.003-.582.2-1.144.585-1.59a5.1 5.1 0 0 1 1.573-1.279 9.13 9.13 0 0 1 2.294-.83 12.04 12.04 0 0 1 2.759-.31c1.026-.017 2.05.092 3.049.325a6.34 6.34 0 0 1 2.127.907 3.7 3.7 0 0 1 1.232 1.418c.27.584.402 1.22.387 1.864z" fill="#1a1a1a"/></g></symbol><defs ><path id="C" d="M40.994 14.076a3.45 3.45 0 0 1-3.445-3.451 3.45 3.45 0 0 1 3.45-3.446 3.45 3.45 0 0 1 3.447 3.448c-.002 1.905-1.547 3.448-3.452 3.448z"/></defs></svg>